<?xml version="1.0" encoding="UTF-8"?>
<svg width="12px" height="12px" viewBox="0 0 12 12" version="1.1" xmlns="http://www.w3.org/2000/svg" xmlns:xlink="http://www.w3.org/1999/xlink">
    <!-- Generator: sketchtool 41.2 (35397) - http://www.bohemiancoding.com/sketch -->
    <title>6FAEEAAC-62F1-4E15-A0EE-9CA12F2615C1</title>
    <desc>Created with sketchtool.</desc>
    <defs></defs>
    <g id="Symbols" stroke="none" stroke-width="1" fill="none" fill-rule="evenodd">
        <g id="incoming" fill="#0A58A6">
            <path d="M10.9982469,5 L10.9982469,4 L8.91159529,4 L11.9168545,1 L10.9561733,0 L7.99298773,3 L7.99298773,1 L6.99123466,1 L6.99123466,5 L10.9982469,5 L10.9982469,5 Z M0.772351615,0 C0.402704733,0 0,0.298 0,0.667 C0,6.926 5.07287754,12 11.34285,12 C11.7114951,12 12,11.702 12,11.333 L12,9 C12,8.632 11.659404,8.333 11.2907588,8.333 C10.4552968,8.333 9.6328575,8.2 8.88554971,7.953 C8.65214125,7.88 8.38066617,7.933 8.19333834,8.113 L6.71975958,9.58 C4.82945154,8.62 3.27773604,7.08 2.31605309,5.187 L3.78362134,3.713 C3.97094916,3.54 4.02304032,3.28 3.94991235,3.047 C3.70247934,2.3 3.56924618,1.5 3.56924618,0.667 C3.56924618,0.298 3.26972201,0 2.90107688,0 L0.980716253,0 L0.772351615,0 L0.772351615,0 Z" id="incoming-icon"></path>
        </g>
    </g>
</svg>