<?xml version="1.0" encoding="UTF-8"?>
<svg width="18px" height="18px" viewBox="0 0 18 18" version="1.1" xmlns="http://www.w3.org/2000/svg" xmlns:xlink="http://www.w3.org/1999/xlink">
    <!-- Generator: sketchtool 41.2 (35397) - http://www.bohemiancoding.com/sketch -->
    <title>AC83372C-EC16-4D6A-9FC9-921ADF73775B</title>
    <desc>Created with sketchtool.</desc>
    <defs></defs>
    <g id="Symbols" stroke="none" stroke-width="1" fill="none" fill-rule="evenodd" opacity="0.3">
        <g id="top-profile" transform="translate(-808.000000, -23.000000)" fill="#000000">
            <path d="M819.08,35.59 L821.67,33 L812,33 L812,31 L821.67,31 L819.08,28.41 L820.5,27 L825.5,32 L820.5,37 L819.08,35.59 L819.08,35.59 Z M824,23 C825.104569,23 826,23.8954305 826,25 L826,29.67 L824,27.67 L824,25 L810,25 L810,39 L824,39 L824,36.33 L826,34.33 L826,39 C826,40.1045695 825.104569,41 824,41 L810,41 C808.89,41 808,40.1 808,39 L808,25 C808,23.89 808.89,23 810,23 L824,23 L824,23 Z" id="logout-icon"></path>
        </g>
    </g>
</svg>