<?xml version="1.0" encoding="UTF-8"?>
<svg width="16px" height="12px" viewBox="0 0 16 12" version="1.1" xmlns="http://www.w3.org/2000/svg" xmlns:xlink="http://www.w3.org/1999/xlink">
    <!-- Generator: sketchtool 41.2 (35397) - http://www.bohemiancoding.com/sketch -->
    <title>04823BB1-1FFC-432E-83BD-58FDCE6A2167</title>
    <desc>Created with sketchtool.</desc>
    <defs></defs>
    <g id="Symbols" stroke="none" stroke-width="1" fill="none" fill-rule="evenodd">
        <g id="incoming-lost" fill="#BE1E2D">
            <path d="M15.8066667,9.11333333 C13.7733333,7.18 11.0266667,6 8,6 C4.97333333,6 2.22666667,7.18 0.193333333,9.11333333 C0.0733333333,9.23333333 0,9.4 0,9.58666667 C0,9.76666667 0.0733333333,9.93333333 0.193333333,10.0533333 L1.84666667,11.7066667 C1.96666667,11.8266667 2.13333333,11.9066667 2.33333333,11.9066667 C2.5,11.9066667 2.66666667,11.8333333 2.78666667,11.7133333 C3.31333333,11.22 3.90666667,10.8066667 4.56,10.48 C4.78,10.3733333 4.93333333,10.1466667 4.93333333,9.88 L4.93333333,7.81333333 C5.9,7.5 6.92666667,7.33333333 8,7.33333333 C9.06666667,7.33333333 10.1,7.5 11.0666667,7.81333333 L11.0666667,9.88 C11.0666667,10.1466667 11.22,10.3733333 11.44,10.48 C12.0933333,10.8066667 12.6866667,11.22 13.2133333,11.7133333 C13.3333333,11.8333333 13.5,11.9066667 13.6666667,11.9066667 C13.8666667,11.9066667 14.0333333,11.8266667 14.1533333,11.7066667 L15.8066667,10.0533333 C15.9266667,9.93333333 16,9.76666667 16,9.58666667 C16,9.4 15.9266667,9.23333333 15.8066667,9.11333333 L15.8066667,9.11333333 Z M4.33333333,1.66666667 L8,5.33333333 L12.6666667,0.666666667 L12,0 L8,4 L5,1 L7.33333333,1 L7.33333333,0 L3.33333333,0 L3.33333333,4 L4.33333333,4 L4.33333333,1.66666667 L4.33333333,1.66666667 Z" id="in"></path>
        </g>
    </g>
</svg>