<?xml version="1.0" encoding="UTF-8"?>
<svg width="121px" height="30px" viewBox="0 0 121 30" version="1.1" xmlns="http://www.w3.org/2000/svg" xmlns:xlink="http://www.w3.org/1999/xlink">
    <!-- Generator: sketchtool 41.2 (35397) - http://www.bohemiancoding.com/sketch -->
    <title>08A6D667-2158-44C4-AAB1-3A87C21D2166</title>
    <desc>Created with sketchtool.</desc>
    <defs>
        <polygon id="path-1" points="9.01286957 0.388173913 0 0.388173913 0 7.84608696 0 15.304 9.01286957 15.304 9.01286957 0.388173913"></polygon>
        <polygon id="path-3" points="9.45787826 0.388173913 0.445008696 0.388173913 0.445008696 15.304 9.45787826 15.304 9.45787826 0.388173913"></polygon>
        <polygon id="path-5" points="11.2507826 13.7531826 11.2507826 0.547617391 0.595756522 0.547617391 0.595756522 13.7531826 11.2507826 13.7531826"></polygon>
    </defs>
    <g id="Symbols" stroke="none" stroke-width="1" fill="none" fill-rule="evenodd">
        <g id="logo">
            <g>
                <path d="M118,26 C118,28.209 116.209,30 114,30 L7,30 C4.791,30 3,28.209 3,26 L3,18.9645557 C1.3038505,18.7219417 0,17.2632393 0,15.5 C0,13.7367607 1.3038505,12.2780583 3,12.0354443 L3,4 C3,1.791 4.791,0 7,0 L114,0 C116.209,0 118,1.791 118,4 L118,12.0354443 C119.69615,12.2780583 121,13.7367607 121,15.5 C121,17.2632393 119.69615,18.7219417 118,18.9645557 L118,26 Z" id="background" fill="#1358AB"></path>
                <path d="M113,2 L8,2 C6.343,2 5,3.343 5,5 L5,12 C5,12 7,13.531 7,15.5 C7,17.469 5,19 5,19 L5,25 C5,26.657 6.343,28 8,28 L113,28 C114.657,28 116,26.657 116,25 L116,19 C116,19 114,18.021 114,15.5 C114,12.979 116,12 116,12 L116,5 C116,3.343 114.657,2 113,2 M113,3 C114.103,3 115,3.897 115,5 L115,11.458 C114.245,12.021 113,13.286 113,15.5 C113,17.714 114.245,18.979 115,19.542 L115,25 C115,26.103 114.103,27 113,27 L8,27 C6.897,27 6,26.103 6,25 L6,19.455 C6.68,18.819 8,17.346 8,15.5 C8,13.654 6.68,12.181 6,11.545 L6,5 C6,3.897 6.897,3 8,3 L113,3" id="border" fill="#FFFFFF"></path>
                <path d="M3.5,17 C2.672,17 2,16.328 2,15.5 C2,14.672 2.672,14 3.5,14 C4.328,14 5,14.672 5,15.5 C5,16.328 4.328,17 3.5,17 Z" id="dot" fill="#FFFFFF"></path>
                <path d="M119,15.5 C119,16.328 118.328,17 117.5,17 C116.672,17 116,16.328 116,15.5 C116,14.672 116.672,14 117.5,14 C118.328,14 119,14.672 119,15.5" id="dot" fill="#FFFFFF"></path>
                <g id="text" transform="translate(17.000000, 7.000000)">
                    <g id="Group-3" transform="translate(0.000000, 0.307687)">
                        <mask id="mask-2" fill="white">
                            <use xlink:href="#path-1"></use>
                        </mask>
                        <g id="Clip-2"></g>
                        <path d="M0.708173913,4.26121739 C0.708173913,3.7213913 0.809043478,3.21704348 1.01078261,2.74817391 C1.21252174,2.27930435 1.48521739,1.86956522 1.82956522,1.51965217 C2.17391304,1.16904348 2.57669565,0.892173913 3.03582609,0.690434783 C3.49495652,0.489391304 3.9853913,0.387826087 4.50643478,0.387826087 C5.02817391,0.387826087 5.5186087,0.490782609 5.97773913,0.695304348 C6.43686957,0.899826087 6.83895652,1.17947826 7.184,1.53356522 C7.52834783,1.88695652 7.80104348,2.29669565 8.00278261,2.76208696 C8.20382609,3.22817391 8.3053913,3.72765217 8.3053913,4.26121739 C8.3053913,5.29147826 7.92347826,6.20695652 7.15965217,7.00765217 C8.39513043,7.99478261 9.01286957,9.23304348 9.01286957,10.7238261 C9.01286957,11.349913 8.89530435,11.9412174 8.65947826,12.4963478 C8.42365217,13.0521739 8.10086957,13.5377391 7.69113043,13.9537391 C7.2813913,14.3697391 6.80347826,14.698087 6.2573913,14.9408696 C5.7106087,15.1829565 5.12765217,15.304 4.50643478,15.304 C3.88591304,15.304 3.30226087,15.1843478 2.75617391,14.9450435 C2.21008696,14.7064348 1.73217391,14.3787826 1.32243478,13.9627826 C0.912695652,13.5474783 0.589913043,13.0612174 0.354086957,12.506087 C0.117565217,11.9502609 0,11.3561739 0,10.7238261 C0,10.4372174 0.091826087,10.202087 0.274782609,10.0149565 C0.458434783,9.82921739 0.689391304,9.73669565 0.968347826,9.73669565 C1.24173913,9.73669565 1.4733913,9.82921739 1.66191304,10.0149565 C1.85182609,10.202087 1.94573913,10.4372174 1.94573913,10.7238261 C1.94573913,11.0890435 2.01252174,11.4306087 2.14608696,11.7471304 C2.27965217,12.0636522 2.46191304,12.3384348 2.69147826,12.5707826 C2.92104348,12.8038261 3.19026087,12.9881739 3.50121739,13.1252174 C3.81147826,13.2615652 4.14608696,13.3304348 4.50643478,13.3304348 C4.86052174,13.3304348 5.19373913,13.2601739 5.50747826,13.1203478 C5.82121739,12.9805217 6.09252174,12.7933913 6.32208696,12.5568696 C6.55165217,12.3210435 6.73321739,12.0448696 6.86747826,11.7283478 C7.00034783,11.4118261 7.06713043,11.0765217 7.06713043,10.7238261 C7.06713043,10.3690435 7.00034783,10.0337391 6.86747826,9.71721739 C6.73321739,9.40069565 6.55165217,9.12452174 6.32208696,8.88869565 C6.09252174,8.65286957 5.82121739,8.46573913 5.50747826,8.32521739 C5.19373913,8.18608696 4.86052174,8.11582609 4.50643478,8.11582609 C4.22747826,8.11582609 3.99513043,8.02121739 3.808,7.832 C3.62156522,7.64278261 3.52904348,7.40834783 3.52904348,7.1293913 C3.52904348,6.84347826 3.62156522,6.60765217 3.808,6.42121739 C3.99513043,6.23478261 4.22747826,6.14226087 4.50643478,6.14226087 C4.75478261,6.14226087 4.992,6.09217391 5.21878261,5.99269565 C5.44556522,5.89391304 5.64243478,5.75895652 5.81008696,5.58782609 C5.97773913,5.4173913 6.11130435,5.21704348 6.21008696,4.98747826 C6.30956522,4.75791304 6.35965217,4.51582609 6.35965217,4.26121739 C6.35965217,4.00034783 6.30956522,3.75547826 6.21008696,3.52591304 C6.11130435,3.29634783 5.97565217,3.096 5.80521739,2.92556522 C5.63478261,2.75443478 5.43791304,2.61808696 5.2146087,2.51582609 C4.9906087,2.41286957 4.75478261,2.36208696 4.50643478,2.36208696 C4.25252174,2.36208696 4.01182609,2.41286957 3.78504348,2.51582609 C3.55895652,2.61808696 3.3613913,2.75443478 3.19373913,2.92556522 C3.02608696,3.096 2.89321739,3.29634783 2.79373913,3.52591304 C2.69356522,3.75547826 2.64765217,4.00034783 2.65391304,4.26121739 C2.65391304,4.52834783 2.55930435,4.75791304 2.37008696,4.9506087 C2.18017391,5.1426087 1.94921739,5.2386087 1.67652174,5.2386087 C1.4093913,5.2386087 1.18121739,5.1426087 0.992,4.9506087 C0.802782609,4.75791304 0.708173913,4.52834783 0.708173913,4.26121739" id="Fill-1" fill="#FFFFFF" mask="url(#mask-2)"></path>
                    </g>
                    <g id="Group-6" transform="translate(10.434783, 0.307687)">
                        <mask id="mask-4" fill="white">
                            <use xlink:href="#path-3"></use>
                        </mask>
                        <g id="Clip-5"></g>
                        <path d="M1.15318261,4.26121739 C1.15318261,3.7213913 1.25405217,3.21704348 1.4557913,2.74817391 C1.65753043,2.27930435 1.93022609,1.86956522 2.27457391,1.51965217 C2.61892174,1.16904348 3.02170435,0.892173913 3.48083478,0.690434783 C3.93996522,0.489391304 4.4304,0.387826087 4.95144348,0.387826087 C5.47318261,0.387826087 5.96361739,0.490782609 6.42274783,0.695304348 C6.88187826,0.899826087 7.28396522,1.17947826 7.6290087,1.53356522 C7.97335652,1.88695652 8.24605217,2.29669565 8.4477913,2.76208696 C8.64883478,3.22817391 8.7504,3.72765217 8.7504,4.26121739 C8.7504,5.29147826 8.36848696,6.20695652 7.60466087,7.00765217 C8.84013913,7.99478261 9.45787826,9.23304348 9.45787826,10.7238261 C9.45787826,11.349913 9.34031304,11.9412174 9.10448696,12.4963478 C8.86866087,13.0521739 8.54587826,13.5377391 8.13613913,13.9537391 C7.7264,14.3697391 7.24848696,14.698087 6.7024,14.9408696 C6.15561739,15.1829565 5.57266087,15.304 4.95144348,15.304 C4.33092174,15.304 3.74726957,15.1843478 3.20118261,14.9450435 C2.65509565,14.7064348 2.17718261,14.3787826 1.76744348,13.9627826 C1.35770435,13.5474783 1.03492174,13.0612174 0.799095652,12.506087 C0.562573913,11.9502609 0.445008696,11.3561739 0.445008696,10.7238261 C0.445008696,10.4372174 0.536834783,10.202087 0.719791304,10.0149565 C0.903443478,9.82921739 1.1344,9.73669565 1.41335652,9.73669565 C1.68674783,9.73669565 1.9184,9.82921739 2.10692174,10.0149565 C2.29683478,10.202087 2.39074783,10.4372174 2.39074783,10.7238261 C2.39074783,11.0890435 2.45753043,11.4306087 2.59109565,11.7471304 C2.72466087,12.0636522 2.90692174,12.3384348 3.13648696,12.5707826 C3.36605217,12.8038261 3.63526957,12.9881739 3.94622609,13.1252174 C4.25648696,13.2615652 4.59109565,13.3304348 4.95144348,13.3304348 C5.30553043,13.3304348 5.63874783,13.2601739 5.95248696,13.1203478 C6.26622609,12.9805217 6.53753043,12.7933913 6.76709565,12.5568696 C6.99666087,12.3210435 7.17822609,12.0448696 7.31248696,11.7283478 C7.44535652,11.4118261 7.51213913,11.0765217 7.51213913,10.7238261 C7.51213913,10.3690435 7.44535652,10.0337391 7.31248696,9.71721739 C7.17822609,9.40069565 6.99666087,9.12452174 6.76709565,8.88869565 C6.53753043,8.65286957 6.26622609,8.46573913 5.95248696,8.32521739 C5.63874783,8.18608696 5.30553043,8.11582609 4.95144348,8.11582609 C4.67248696,8.11582609 4.44013913,8.02121739 4.2530087,7.832 C4.06657391,7.64278261 3.97405217,7.40834783 3.97405217,7.1293913 C3.97405217,6.84347826 4.06657391,6.60765217 4.2530087,6.42121739 C4.44013913,6.23478261 4.67248696,6.14226087 4.95144348,6.14226087 C5.1997913,6.14226087 5.4370087,6.09217391 5.6637913,5.99269565 C5.89057391,5.89391304 6.08744348,5.75895652 6.25509565,5.58782609 C6.42274783,5.4173913 6.55631304,5.21704348 6.65509565,4.98747826 C6.75457391,4.75791304 6.80466087,4.51582609 6.80466087,4.26121739 C6.80466087,4.00034783 6.75457391,3.75547826 6.65509565,3.52591304 C6.55631304,3.29634783 6.42066087,3.096 6.25022609,2.92556522 C6.0797913,2.75443478 5.88292174,2.61808696 5.65961739,2.51582609 C5.43561739,2.41286957 5.1997913,2.36208696 4.95144348,2.36208696 C4.69753043,2.36208696 4.45683478,2.41286957 4.23005217,2.51582609 C4.00396522,2.61808696 3.8064,2.75443478 3.63874783,2.92556522 C3.47109565,3.096 3.33822609,3.29634783 3.23874783,3.52591304 C3.13857391,3.75547826 3.09266087,4.00034783 3.09892174,4.26121739 C3.09892174,4.52834783 3.00431304,4.75791304 2.81509565,4.9506087 C2.62518261,5.1426087 2.39422609,5.2386087 2.12153043,5.2386087 C1.8544,5.2386087 1.62622609,5.1426087 1.4370087,4.9506087 C1.2477913,4.75791304 1.15318261,4.52834783 1.15318261,4.26121739" id="Fill-4" fill="#FFFFFF" mask="url(#mask-4)"></path>
                    </g>
                    <path d="M37.6161391,11.7859478 C37.736487,11.7859478 37.8491826,11.8096 37.9542261,11.8562087 C38.0585739,11.9028174 38.1504,11.9647304 38.2304,12.0419478 C38.3104,12.1184696 38.3737043,12.2102957 38.420313,12.3181217 C38.4676174,12.4252522 38.4905739,12.5400348 38.4905739,12.6603826 C38.4905739,12.8920348 38.4001391,13.1007304 38.2185739,13.2878609 C36.9914435,14.2666435 35.6077913,14.7563826 34.0669217,14.7563826 C32.2394435,14.7563826 30.6832696,14.1136 29.3956174,12.8259478 C28.1079652,11.5382957 27.4637913,9.98142609 27.4637913,8.15325217 C27.4637913,6.33203478 28.1079652,4.77725217 29.3956174,3.49029565 C30.6881391,2.19707826 32.2457043,1.55081739 34.0669217,1.55081739 C35.6293565,1.55081739 37.0408348,2.06490435 38.3006609,3.09377391 C38.4550957,3.24264348 38.5316174,3.4429913 38.5316174,3.69690435 C38.5316174,3.82281739 38.5100522,3.93829565 38.4662261,4.04264348 C38.4217043,4.14768696 38.360487,4.23951304 38.280487,4.3202087 C38.200487,4.39951304 38.1072696,4.46142609 37.9994435,4.50525217 C37.892313,4.54977391 37.7782261,4.57133913 37.6571826,4.57133913 C37.4422261,4.57133913 37.2411826,4.48925217 37.0547478,4.32368696 C36.6366609,3.99325217 36.1754435,3.74142609 35.6717913,3.56473043 C35.1688348,3.38803478 34.6338783,3.30038261 34.0669217,3.30038261 C32.7236174,3.30038261 31.5771826,3.7762087 30.6248348,4.72786087 C29.684313,5.66977391 29.2140522,6.81133913 29.2140522,8.15325217 C29.2140522,9.50212174 29.684313,10.6464696 30.6248348,11.587687 C31.5716174,12.5344696 32.7180522,13.007513 34.0669217,13.007513 C35.2168348,13.007513 36.2290087,12.6527304 37.1041391,11.9424696 C37.2467478,11.843687 37.4178783,11.791513 37.6161391,11.7859478" id="Fill-7" fill="#FFFFFF"></path>
                    <path d="M41.6762435,14.2207304 C41.5058087,14.5789913 41.2365913,14.7563826 40.8678957,14.7563826 C40.741287,14.7563826 40.625113,14.7348174 40.5207652,14.691687 C40.4164174,14.6464696 40.3238957,14.5845565 40.2438957,14.5045565 C40.165287,14.4259478 40.1026783,14.3334261 40.0588522,14.2290783 C40.0143304,14.1240348 39.9927652,14.0085565 39.9927652,13.8826435 C39.9927652,13.7671652 40.017113,13.6489043 40.0672,13.5271652 L44.4915478,2.1616 C44.6668522,1.75464348 44.945113,1.55081739 45.3249391,1.55081739 C45.7047652,1.55081739 45.9823304,1.75464348 46.1583304,2.1616 L50.5819826,13.5271652 C50.6320696,13.6433391 50.6564174,13.7616 50.6564174,13.8826435 C50.6564174,14.0085565 50.6348522,14.1240348 50.5903304,14.2290783 C50.5465043,14.3334261 50.4845913,14.4259478 50.405287,14.5045565 C50.325287,14.5845565 50.2320696,14.6464696 50.1249391,14.691687 C50.017113,14.7348174 49.9023304,14.7563826 49.7819826,14.7563826 C49.3965913,14.7563826 49.1245913,14.5789913 48.965287,14.2207304 L45.3249391,4.84403478 L41.6762435,14.2207304 Z" id="Fill-9" fill="#FFFFFF"></path>
                    <path d="M57.6477217,3.3005913 C56.965287,3.3005913 56.3426783,3.41885217 55.7778087,3.65537391 C55.2143304,3.89189565 54.693287,4.24946087 54.213287,4.72806957 C53.7353739,5.20737391 53.3798957,5.72702609 53.1454609,6.28841739 C52.9110261,6.84911304 52.7941565,7.47172174 52.7941565,8.15346087 C52.7941565,9.49676522 53.2678957,10.641113 54.213287,11.5878957 C55.1607652,12.5346783 56.305113,13.0077217 57.6477217,13.0077217 C58.9910261,13.0077217 60.1346783,12.5346783 61.0814609,11.5878957 C62.0275478,10.641113 62.501287,9.49676522 62.501287,8.15346087 C62.501287,6.81641739 62.0275478,5.67485217 61.0814609,4.72806957 C60.1284174,3.77641739 58.9854609,3.3005913 57.6477217,3.3005913 M64.2508522,8.15346087 C64.2508522,9.97537391 63.6038957,11.5329391 62.3113739,12.8261565 C61.0237217,14.113113 59.4689391,14.7565913 57.6477217,14.7565913 C55.8209391,14.7565913 54.2640696,14.113113 52.9764174,12.8261565 C51.6887652,11.5378087 51.0445913,9.98093913 51.0445913,8.15346087 C51.0445913,6.33224348 51.6887652,4.77746087 52.9764174,3.49050435 C54.2696348,2.19728696 55.8272,1.55102609 57.6477217,1.55102609 C59.4633739,1.55102609 61.0181565,2.19728696 62.3113739,3.49050435 C62.9604174,4.13954783 63.4466783,4.8498087 63.7680696,5.61989565 C64.0894609,6.38998261 64.2508522,7.23450435 64.2508522,8.15346087" id="Fill-11" fill="#FFFFFF"></path>
                    <path d="M75.2326261,13.881113 C75.2326261,14.1238957 75.1477565,14.3305043 74.9766261,14.5009391 C74.806887,14.6713739 74.6002783,14.7569391 74.3581913,14.7569391 C74.1168,14.7569391 73.9094957,14.6713739 73.7397565,14.5009391 C73.5686261,14.3305043 73.4830609,14.1238957 73.4830609,13.881113 L73.4830609,9.02824348 L67.5985391,9.02824348 L67.5985391,13.881113 C67.5985391,14.1238957 67.5129739,14.3305043 67.3425391,14.5009391 C67.1714087,14.6713739 66.9654957,14.7569391 66.7234087,14.7569391 C66.4806261,14.7569391 66.274713,14.6713739 66.1042783,14.5009391 C65.9338435,14.3305043 65.8482783,14.1238957 65.8482783,13.881113 L65.8482783,2.4258087 C65.8482783,2.18372174 65.9338435,1.97711304 66.1042783,1.80667826 C66.274713,1.63624348 66.4806261,1.55067826 66.7234087,1.55067826 C66.9654957,1.55067826 67.1714087,1.63624348 67.3425391,1.80667826 C67.5129739,1.97711304 67.5985391,2.18372174 67.5985391,2.4258087 L67.5985391,7.27937391 L73.4830609,7.27937391 L73.4830609,2.4258087 C73.4830609,2.18372174 73.5686261,1.97711304 73.7397565,1.80667826 C73.9094957,1.63624348 74.1168,1.55067826 74.3581913,1.55067826 C74.6002783,1.55067826 74.806887,1.63624348 74.9766261,1.80667826 C75.1477565,1.97711304 75.2326261,2.18372174 75.2326261,2.4258087 L75.2326261,13.881113 Z" id="Fill-13" fill="#FFFFFF"></path>
                    <g id="Group-17" transform="translate(75.826087, 1.003339)">
                        <mask id="mask-6" fill="white">
                            <use xlink:href="#path-5"></use>
                        </mask>
                        <g id="Clip-16"></g>
                        <path d="M7.36375652,7.54657391 L5.92793043,3.84083478 L4.4914087,7.54657391 L7.36375652,7.54657391 Z M0.686191304,12.4822261 L5.09384348,1.14170435 C5.26984348,0.745878261 5.5488,0.547617391 5.92793043,0.547617391 C6.31749565,0.547617391 6.59575652,0.745878261 6.76132174,1.14170435 L11.1849739,12.5239652 C11.2294957,12.6338783 11.2510609,12.7521391 11.2510609,12.8787478 C11.2510609,13.1208348 11.1661913,13.3274435 10.9957565,13.4978783 C10.8253217,13.668313 10.618713,13.7531826 10.3766261,13.7531826 C10.1338435,13.7531826 9.9314087,13.668313 9.76514783,13.4978783 C9.6768,13.4095304 9.61210435,13.316313 9.56688696,13.2175304 L8.04132174,9.29613913 L3.81453913,9.29613913 L2.27923478,13.2175304 C2.2354087,13.316313 2.16862609,13.4095304 2.08097391,13.4978783 C1.91053913,13.668313 1.70462609,13.7531826 1.46253913,13.7531826 C1.21975652,13.7531826 1.01523478,13.668313 0.846886957,13.4978783 C0.679930435,13.3274435 0.595756522,13.1208348 0.595756522,12.8787478 C0.595756522,12.7465739 0.625669565,12.6150957 0.686191304,12.4822261 L0.686191304,12.4822261 Z" id="Fill-15" fill="#FFFFFF" mask="url(#mask-6)"></path>
                    </g>
                </g>
            </g>
        </g>
    </g>
</svg>